<?xml version="1.0" standalone="no"?><!DOCTYPE svg PUBLIC "-//W3C//DTD SVG 1.1//EN" "http://www.w3.org/Graphics/SVG/1.1/DTD/svg11.dtd"><svg t="1781244959031" class="icon" viewBox="0 0 1024 1024" version="1.1" xmlns="http://www.w3.org/2000/svg" p-id="1683" xmlns:xlink="http://www.w3.org/1999/xlink" width="200" height="200"><path d="M516.6592 56.32c102.2976 0 196.64896 39.7056 267.0592 112.34304l2.41664 2.51392c68.59264 71.3216 107.59168 168.56576 109.98272 273.5872l0.07168 3.75808v12.52352H796.8768v-11.66848c-1.91488-163.24096-116.6336-287.6416-268.85632-293.57056l-4.62848-0.14336-6.7328-0.13312h-4.26496a269.38368 269.38368 0 0 0-197.5296 86.76352l-4.48 4.9152a295.30624 295.30624 0 0 0-76.11904 201.63072l0.08704 4.24448 0.08704 1.1264 0.2048 1.90464 0.18432 2.3552c0.10752 1.41824 0.16896 2.57024 0.2048 3.68128l0.02048 1.664-0.01024 1.99168c-0.22016 18.92864-3.67104 29.57312-13.48608 39.81312l-1.54624 1.58208c-3.4048 3.61472-12.69248 14.67904-27.65824 32.94208l-11.15648 13.6448-31.82592 39.25504a13.00992 13.00992 0 0 0-2.3552 11.9296c1.14176 3.80416 3.94752 6.85568 7.30624 8.2432l0.84992 0.3072 1.9456 0.46592 25.0368 4.3776c8.576 1.46432 15.73376 2.64704 21.44768 3.5328l4.00896 0.60416 4.11648 0.58368 0.75776 0.01536c7.36768 0.384 13.66528 4.20864 19.14368 10.90048l0.95744 1.21344 0.89088 1.19296c2.42176 3.71712 4.09088 7.86944 4.90496 12.06272l0.62976 3.70176c0.3584 2.28352 0.59392 4.58752 0.7168 6.7072l0.05632 1.56672v1.51552l10.10176 203.98592 24.48384-3.85536c39.12704-6.0416 78.28992-11.8784 117.4784-17.536l15.45216-2.23232 45.1072-6.41536v102.36928l-22.97344 3.71712a4499.01056 4499.01056 0 0 1-165.41184 23.18336l-20.736 2.4576-0.66048 0.04096c-46.11072-0.47104-84.3264-35.7376-88.76544-81.72544l-0.1536-1.75104-0.19456-4.4032-8.09472-169.47712-18.8928-3.92192-4.78208-1.1008c-61.2864-14.45888-88.9088-38.4512-90.9056-84.0704l-0.07168-1.7664-0.03584-1.7664c-0.33792-17.5104 7.4752-36.21888 23.14752-57.09312l28.56448-37.68832 43.776-57.69216 10.25536-13.2864v-4.59776c1.34144-209.65376 148.5312-376.51456 341.9648-390.1696l5.87776-0.36864 6.02112-0.2816L497.38752 56.32h19.27168zM972.8 504.61696v404.18816h-99.96288V504.61696H972.8z m-248.1664 3.95776l135.45472 399.90784h-102.05184l-25.97376-88.59136h-110.40256l-25.97376 88.59136H494.58176l134.89664-399.90784h95.15008z m-48.09728 127.7952l-25.50784 91.89888h51.5584l-26.05056-91.89888z" fill="#584ae0" p-id="1684"></path></svg>